<svg width="182" height="53" viewBox="0 0 182 53" fill="none" xmlns="http://www.w3.org/2000/svg">
<path d="M15.5994 44.48L7.18759 24H0V53H5.21298V32.64L13.52 53H17.68L25.8674 32.48V53H31.2384V24H23.8138L15.5994 44.48ZM52.8949 41.92C52.8949 43.785 52.421 45.2 51.4732 46.16C50.5254 47.12 49.2221 47.6 47.5635 47.6C45.9048 47.6 44.641 47.12 43.6932 46.16C42.7454 45.2 42.2715 43.785 42.2715 41.92V24H36.8216V42.32C36.8216 44.055 37.103 45.585 37.6707 46.92C38.2384 48.255 38.9986 49.375 39.9612 50.28C40.9238 51.185 42.0543 51.865 43.3575 52.32C44.6608 52.775 46.0628 53 47.5635 53C49.0642 53 50.4711 52.775 51.7891 52.32C53.1072 51.865 54.2426 51.185 55.2052 50.28C56.1678 49.375 56.9281 48.255 57.4958 46.92C58.0635 45.585 58.3448 44.055 58.3448 42.32V24H52.8949V41.92ZM84.311 24H61.1291V29.24H69.9753V53H75.4647V29.24H84.311V24ZM137.216 18.76L125.566 0H118.773V28.36H124.223V8.24L136.939 28.36H142.666V0H137.216V18.76ZM145.593 5.24H154.439V28.36H159.929V5.24H168.775V0H145.593V5.24ZM102.28 0L94.8949 24H91.6862L81.4667 53H87.1L89.6869 45.88H95.1121L102.023 21.88H107.715L110.045 28.36H115.969L105.306 0H102.28ZM102.023 16.84L95.1121 40.84H91.5035L102.023 5.795L105.898 16.84H102.023ZM171.066 1.125H172.67V5.285H173.835V1.125H175.444V0H171.066V1.125ZM180.401 0L179.038 3.57L177.602 0H176.086V5.285H177.192V1.825L178.554 5.285H179.497L180.86 1.78V5.285H182V0H180.405H180.401Z" fill="black"/>
</svg>
