<svg width="399" height="79" viewBox="0 0 399 79" fill="none" xmlns="http://www.w3.org/2000/svg">
<g filter="url(#filter0_f_2005_414)">
<path d="M62.1981 19.502H40.9886V73.6472H24.5072V19.502H3.37793V4.92136H62.1981V19.502Z" fill="#FF0000"/>
<path d="M59.2876 39.271C59.2876 17.5597 73.5252 3.37814 94.6545 3.37814C115.784 3.37814 130.021 17.5597 130.021 39.271C130.021 60.9823 115.677 75.1638 94.6545 75.1638C73.632 75.1638 59.2876 60.9823 59.2876 39.271ZM113.059 39.271C113.059 25.6748 105.687 17.5597 94.6545 17.5597C83.6224 17.5597 76.3299 25.6748 76.3299 39.271C76.3299 52.8671 83.5956 60.9823 94.6545 60.9823C105.713 60.9823 113.059 52.8671 113.059 39.271Z" fill="#FF0000"/>
<path d="M195.597 4.92165V73.6475H177.967L161.111 46.2423C157.238 39.8832 153.552 33.7902 150.346 27.511C150.64 38.7125 150.747 48.7434 150.747 59.2531V73.6209H135.147V4.89503H152.777L169.632 32.3002C172.918 37.7015 177.192 44.8321 180.397 51.2178C180.104 39.9365 180.023 29.879 180.023 19.2628V4.89503H195.623L195.597 4.92165Z" fill="#FF0000"/>
<path d="M269.539 35.3065V73.6206H258.106L256.156 64.5476C251.508 71.5984 243.361 75.1638 233.771 75.1638C213.817 75.1638 200.728 61.0887 200.728 39.271C200.728 17.4532 213.897 3.37814 235.694 3.37814C253.618 3.37814 266.413 12.8236 268.63 28.096H251.855C249.905 21.5241 244.296 17.4799 235.774 17.4799C224.529 17.4799 217.744 25.6748 217.744 39.2976C217.744 52.9204 224.716 61.1153 236.549 61.1153C244.99 61.1153 251.855 56.0068 253.03 48.0779H237.724V35.3331H269.512L269.539 35.3065Z" fill="#FF0000"/>
<path d="M275.63 47.4662V4.89503H292.004V47.6525C292.004 56.619 297.24 61.0624 305.574 61.0624C313.908 61.0624 319.224 56.619 319.224 47.6525V4.89503H335.599V47.4662C335.599 65.7186 323.578 75.1641 305.574 75.1641C287.57 75.1641 275.63 65.7186 275.63 47.4662Z" fill="#FF0000"/>
<path d="M359.049 19.502V31.954H392.092V45.6567H359.049V59.0666H395.298V73.6472H342.675V4.92136H395.378V19.502H359.049Z" fill="#FF0000"/>
</g>
<defs>
<filter id="filter0_f_2005_414" x="-0.000219107" y="-5.48363e-06" width="398.756" height="78.5422" filterUnits="userSpaceOnUse" color-interpolation-filters="sRGB">
<feFlood flood-opacity="0" result="BackgroundImageFix"/>
<feBlend mode="normal" in="SourceGraphic" in2="BackgroundImageFix" result="shape"/>
<feGaussianBlur stdDeviation="1.68907" result="effect1_foregroundBlur_2005_414"/>
</filter>
</defs>
</svg>
